<?xml version="1.0" encoding="utf-8"?>
<!-- Generator: Adobe Illustrator 19.0.0, SVG Export Plug-In . SVG Version: 6.00 Build 0)  -->
<svg version="1.1" id="Capa_1" xmlns="http://www.w3.org/2000/svg" xmlns:xlink="http://www.w3.org/1999/xlink" x="0px" y="0px"
	 viewBox="0 0 36 26" style="enable-background:new 0 0 36 26;" xml:space="preserve">
<style type="text/css">
	.st0{fill:#FFFFFF;}
</style>
<g id="XMLID_2_">
	<g>
		<path id="XMLID_3_" class="st0" d="M25.6,23.1c-0.6,0-1.2-0.5-1.2-1.2c0-0.6,0.5-1.2,1.2-1.2c0.6,0,1.2,0.5,1.2,1.2
			C26.7,22.6,26.2,23.1,25.6,23.1z M12,22c0-0.6,0.5-1.2,1.2-1.2c0.6,0,1.2,0.5,1.2,1.2c0,0.6-0.5,1.2-1.2,1.2S12,22.6,12,22z
			 M26.4,17.3l3.2-9.5c0.2-0.4,0-0.7-0.1-0.9c-0.4-0.4-1-0.4-1.2-0.4H10.2L9.7,4C9.5,3.4,9.2,2.8,8.4,2.8H3.3c-0.5,0-0.7,0.5-0.7,1
			v1.3c0,0.4,0.2,0.4,0.7,0.4h4.3L11,19.7c-0.5,0.5-0.9,1.4-0.9,2.1c0,1.7,1.3,3.1,3,3.1c1.6,0,2.8-1.6,3-2.5h6.4
			c0.2,0.9,1.2,2.6,2.9,2.6c1.7,0,3-1.3,3-3c0-1.7-1-3.2-3-3.2c-0.8,0-1.8,0.1-2.2,1h-7.9c-0.5-0.9-1.3-1.2-2.1-1.2L13.1,18h12
			C26,18,26.2,17.8,26.4,17.3z"/>
	</g>
</g>
</svg>
