<?xml version="1.0" encoding="UTF-8" standalone="no"?>
<svg width="250px" height="46px" viewBox="0 0 250 46" version="1.1" xmlns="http://www.w3.org/2000/svg" xmlns:xlink="http://www.w3.org/1999/xlink">
    <!-- Generator: Sketch 3.6.1 (26313) - http://www.bohemiancoding.com/sketch -->
    <title>Group 5</title>
    <desc>Created with Sketch.</desc>
    <defs></defs>
    <g id="Page-1" stroke="none" stroke-width="1" fill="none" fill-rule="evenodd">
        <g id="Group-5">
            <g id="Group">
                <g id="square-flat" fill="#346DA6">
                    <path d="M2.28968308,0 L43.5660825,0 C44.8306393,0 45.8557656,1.0252708 45.8557656,2.29688536 L45.8557656,43.7031147 C45.8557656,44.9716494 44.8337094,46 43.5660825,46 L2.28968308,46 C1.02512628,46 0,44.9747292 0,43.7031147 L0,2.29688536 C0,1.02835061 1.02205623,0 2.28968308,0 L2.28968308,0 Z" id="square-2"></path>
                </g>
                <g id="icon" transform="translate(16.049518, 9.200000)" fill="#FFFFFF">
                    <path d="M3.41031163,27.0743066 L3.41031163,13.7992037 L0.720920655,13.7992036 L0.720920655,9.39883983 L3.41031163,9.39883983 L3.41031163,6.73776291 C3.41031163,3.1484257 4.48010448,0.560141223 8.39779717,0.560141223 L13.0584687,0.560141223 L13.0584687,4.95147064 L9.77664412,4.95147064 C8.13320328,4.95147064 7.75869925,6.0469885 7.75869925,7.19421673 L7.75869925,9.39883906 L12.8162455,9.39883945 L12.1259252,13.7992037 L7.75869925,13.7992037 L7.75869925,27.0743061 L3.41031163,27.0743066 L3.41031163,27.0743066 Z" id="facebook"></path>
                </g>
            </g>
            <g id="Group-2" transform="translate(151.324027, 0.000000)">
                <g id="square-flat" fill="#4186CD">
                    <path d="M2.28968308,0 L43.5660825,0 C44.8306393,0 45.8557656,1.025271 45.8557656,2.29688503 L45.8557656,43.703115 C45.8557656,44.9716493 44.8337094,46 43.5660825,46 L2.28968308,46 C1.02512628,46 0,44.974729 0,43.703115 L0,2.29688503 C0,1.0283507 1.02205623,0 2.28968308,0 L2.28968308,0 Z" id="square-15"></path>
                </g>
                <g id="icon" transform="translate(9.171153, 11.500000)" fill="#FFFFFF">
                    <path d="M15.5874103,6.29417387 C18.6090959,4.5211698 20.2224469,7.01465347 18.6762218,9.83653267 C17.1326426,12.6560896 15.721663,14.4947725 14.9832713,14.4947725 C14.2458716,14.4947725 13.6781069,12.6083232 12.8339,9.3104368 C11.9599327,5.90109467 11.9655546,-0.240564667 8.33510087,0.455368567 C4.91098665,1.11182767 0.411526454,6.36117977 0.411526454,6.36117977 L1.48588119,7.7374553 C1.48588119,7.7374553 3.70204831,6.03145713 4.44110109,6.88429023 C5.1794928,7.7374553 7.99880691,18.0371321 8.94023113,19.9375132 C9.76195269,21.6040372 12.0287125,23.8082675 14.5137167,22.2342917 C16.9977288,20.660315 25.2569361,13.7723026 26.7350417,5.6390411 C28.2128171,-2.49388816 16.7953566,-0.791538867 15.5874103,6.29417387 L15.5874103,6.29417387 L15.5874103,6.29417387 Z" id="vimeo"></path>
                </g>
            </g>
            <g id="Group-3" transform="translate(100.882684, 0.000000)">
                <g id="square-flat" transform="translate(0.000000, 0.000000)" fill="#CA4638">
                    <path d="M2.28968308,0 L43.5660825,0 C44.8306393,0 45.8557656,1.025271 45.8557656,2.29688503 L45.8557656,43.703115 C45.8557656,44.9716493 44.8337094,46 43.5660825,46 L2.28968308,46 C1.02512628,46 0,44.974729 0,43.703115 L0,2.29688503 C0,1.0283507 1.02205623,0 2.28968308,0 L2.28968308,0 Z" id="square-16"></path>
                </g>
                <g id="icon" transform="translate(8.406890, 12.266667)" fill="#FFFFFF">
                    <path d="M29.206925,4.65269913 C29.206925,4.65269913 28.9203548,2.62667973 28.041432,1.7342115 C26.9273914,0.5634195 25.6778814,0.557865767 25.1050672,0.4892652 C21.0038597,0.191666667 14.8517241,0.191666667 14.8517241,0.191666667 L14.838698,0.191666667 C14.838698,0.191666667 8.68688796,0.191666667 4.58535569,0.4892652 C4.01254152,0.557865767 2.76368267,0.5634195 1.64899015,1.7342115 C0.770067336,2.62667973 0.48414823,4.65269913 0.48414823,4.65269913 C0.48414823,4.65269913 0.19106569,7.03185133 0.19106569,9.41100277 L0.19106569,11.6418456 C0.19106569,14.0206712 0.48414823,16.3998226 0.48414823,16.3998226 C0.48414823,16.3998226 0.770067336,18.4258428 1.64899015,19.3183103 C2.76368267,20.4894296 4.22812017,20.4518622 4.88039245,20.5746906 C7.22538141,20.8004211 14.8452111,20.8703288 14.8452111,20.8703288 C14.8452111,20.8703288 21.0038597,20.8608551 25.1050672,20.5635839 C25.6778814,20.4949826 26.9273914,20.4894296 28.041432,19.3183103 C28.9203548,18.4258428 29.206925,16.3998226 29.206925,16.3998226 C29.206925,16.3998226 29.4993564,14.0206712 29.4993564,11.6418456 L29.4993564,9.41100277 C29.4993564,7.03185133 29.206925,4.65269913 29.206925,4.65269913 L29.206925,4.65269913 Z M11.8196186,14.3444031 L11.8183163,6.08384883 L19.7374159,10.2283361 L11.8196186,14.3444031 L11.8196186,14.3444031 Z" id="youtube"></path>
                </g>
            </g>
            <g id="1458685914_twitter-square-social-media" transform="translate(50.441342, 0.000000)">
                <g id="soical">
                    <g id="social">
                        <g id="slices"></g>
                        <g id="square-flat" fill="#4186CD">
                            <path d="M2.28968341,0 L43.5660822,0 C44.8306394,0 45.8557656,1.0252708 45.8557656,2.29688536 L45.8557656,43.7031147 C45.8557656,44.9716494 44.8337096,46 43.5660822,46 L2.28968341,46 C1.02512618,46 0,44.9747292 0,43.7031147 L0,2.29688536 C0,1.02835061 1.02205603,0 2.28968341,0 L2.28968341,0 Z" id="square"></path>
                        </g>
                        <g id="icon" transform="translate(9.935416, 12.266667)" fill="#FFFFFF">
                            <path d="M21.4392048,1.86813227 C20.5152464,0.814354483 19.1986921,0.14295581 17.7416427,0.118627123 C14.9440883,0.0719157023 12.6757976,2.44330793 12.6757976,5.4150556 C12.6757976,5.83681825 12.7206128,6.24809827 12.8070332,6.64291612 C8.59687432,6.36897033 4.8641268,4.16972412 2.3657107,0.854620047 C1.92965765,1.64899397 1.679779,2.57744341 1.679779,3.57201528 C1.679779,5.45482444 2.57410753,7.12580419 3.93337824,8.11242001 C3.10300087,8.07564492 2.32188318,7.82347898 1.63891446,7.40979653 C1.63842063,7.43240783 1.63842063,7.45502442 1.63842063,7.47803792 C1.63842063,10.1073881 3.38460818,12.3132092 5.70203514,12.8270527 C5.27696977,12.9478791 4.82943515,13.0111125 4.36745597,13.0080395 C4.04103347,13.0058681 3.72362338,12.9695557 3.41436152,12.9043555 C4.05893485,15.0606896 5.92969136,16.6341875 8.14650016,16.6862148 C6.41278185,18.1299005 4.22856591,18.9897149 1.85508912,18.9848034 C1.44619678,18.9839572 1.04298351,18.9574525 0.646683877,18.9064597 C2.88855462,20.4495407 5.5512931,21.3479645 8.41205793,21.3487174 C17.7297908,21.3511697 22.8252659,13.2169584 22.8252659,6.16152267 C22.8252659,5.93004116 22.8202041,5.69979798 22.8105744,5.47066653 C23.8003358,4.73084432 24.6591085,3.80327168 25.33825,2.74406791 C24.4298473,3.15484572 23.4534193,3.42766595 22.4288428,3.54210572 C23.474654,2.89643997 24.2779941,1.86307365 24.6561455,0.62388144 C23.6772483,1.21937742 22.5931651,1.64642653 21.4392048,1.86813227 L21.4392048,1.86813227 Z" id="twitter"></path>
                        </g>
                    </g>
                </g>
            </g>
            <g id="Group-4" transform="translate(203.293894, 0.000000)">
                <g id="square-flat" transform="translate(-0.000000, 0.000000)" fill="#CE6F2D">
                    <path d="M2.28968341,0 L43.5660822,0 C44.8306394,0 45.8557656,1.025271 45.8557656,2.29688503 L45.8557656,43.703115 C45.8557656,44.9716493 44.8337096,46 43.5660822,46 L2.28968341,46 C1.02512618,46 -1.17239551e-13,44.974729 -1.17239551e-13,43.703115 L-1.17239551e-13,2.29688503 C-1.17239551e-13,1.0283507 1.02205603,0 2.28968341,0 L2.28968341,0 Z" id="square-11"></path>
                </g>
                <g id="icon" transform="translate(10.699679, 10.733333)" fill="#FFFFFF">
                    <path d="M4.09345287,-3.55271368e-15 L20.3629555,-3.55271368e-15 C22.6237071,-3.55271368e-15 24.4564083,1.84398743 24.4564083,4.10632877 L24.4564083,20.4270046 C24.4564083,22.6948674 22.6182028,24.5333333 20.3629555,24.5333333 L4.09345287,24.5333333 C1.83270129,24.5333333 -1.45661261e-13,22.6893459 -1.45661261e-13,20.4270046 L-1.45661261e-13,4.10632877 C-1.45661261e-13,1.8384659 1.83820552,-3.55271368e-15 4.09345287,-3.55271368e-15 L4.09345287,-3.55271368e-15 Z M19.0659319,10.222222 L22.4183743,10.222222 L22.4183743,20.4270046 C22.4183743,21.5634215 21.494952,22.4888886 20.3629555,22.4888886 L4.09345287,22.4888886 C2.96059941,22.4888886 2.03803403,21.5625621 2.03803403,20.4270046 L2.03803403,10.222222 L5.3904764,10.222222 C5.19828862,10.8700139 5.09508509,11.5562503 5.09508509,12.2666667 C5.09508509,16.2185711 8.28869124,19.422222 12.2282042,19.422222 C16.1677171,19.422222 19.3613232,16.2185711 19.3613232,12.2666667 C19.3613232,11.5562503 19.2581197,10.8700139 19.0659319,10.222222 L19.0659319,10.222222 L19.0659319,10.222222 Z M12.2282042,17.377778 C15.0421419,17.377778 17.3232893,15.0894551 17.3232893,12.2666667 C17.3232893,9.4438782 15.0421419,7.1555553 12.2282042,7.1555553 C9.41426641,7.1555553 7.13311907,9.4438782 7.13311907,12.2666667 C7.13311907,15.0894551 9.41426641,17.377778 12.2282042,17.377778 L12.2282042,17.377778 Z M16.3042722,3.05723973 C16.3042722,2.49788817 16.7439834,2.0444447 17.3138918,2.0444447 L21.4087547,2.0444447 C21.9663522,2.0444447 22.4183743,2.4855387 22.4183743,3.05723973 L22.4183743,7.16498223 C22.4183743,7.7243338 21.9786632,8.17777803 21.4087547,8.17777803 L17.3138918,8.17777803 C16.7562943,8.17777803 16.3042722,7.73668327 16.3042722,7.16498223 L16.3042722,3.05723973 L16.3042722,3.05723973 Z" id="instagram"></path>
                </g>
            </g>
        </g>
    </g>
</svg>