<?xml version="1.0" encoding="UTF-8" standalone="no"?>
<svg width="28px" height="23px" viewBox="0 0 28 23" version="1.1" xmlns="http://www.w3.org/2000/svg" xmlns:xlink="http://www.w3.org/1999/xlink">
    <!-- Generator: Sketch 3.6.1 (26313) - http://www.bohemiancoding.com/sketch -->
    <title>icon-cart</title>
    <desc>Created with Sketch.</desc>
    <defs></defs>
    <g id="Page-1" stroke="none" stroke-width="1" fill="none" fill-rule="evenodd">
        <g id="icon-cart" fill="#C92200">
            <g id="XMLID_2_">
                <path d="M23.6,21.1 C23,21.1 22.4,20.6 22.4,19.9 C22.4,19.3 22.9,18.7 23.6,18.7 C24.2,18.7 24.8,19.2 24.8,19.9 C24.7,20.6 24.2,21.1 23.6,21.1 L23.6,21.1 Z M10,20 C10,19.4 10.5,18.8 11.2,18.8 C11.8,18.8 12.4,19.3 12.4,20 C12.4,20.6 11.9,21.2 11.2,21.2 C10.5,21.2 10,20.6 10,20 L10,20 Z M24.4,15.3 L27.6,5.8 C27.8,5.4 27.6,5.1 27.5,4.9 C27.1,4.5 26.5,4.5 26.3,4.5 L8.2,4.5 L7.7,2 C7.5,1.4 7.2,0.8 6.4,0.8 L1.3,0.8 C0.8,0.8 0.6,1.3 0.6,1.8 L0.6,3.1 C0.6,3.5 0.8,3.5 1.3,3.5 L5.6,3.5 L9,17.7 C8.5,18.2 8.1,19.1 8.1,19.8 C8.1,21.5 9.4,22.9 11.1,22.9 C12.7,22.9 13.9,21.3 14.1,20.4 L20.5,20.4 C20.7,21.3 21.7,23 23.4,23 C25.1,23 26.4,21.7 26.4,20 C26.4,18.3 25.4,16.8 23.4,16.8 C22.6,16.8 21.6,16.9 21.2,17.8 L13.3,17.8 C12.8,16.9 12,16.6 11.2,16.6 L11.1,16 L23.1,16 C24,16 24.2,15.8 24.4,15.3 L24.4,15.3 Z" id="XMLID_3_"></path>
            </g>
        </g>
    </g>
</svg>